<svg viewBox="0 0 560 280" xmlns="http://www.w3.org/2000/svg">
  <!-- 白背景 -->
  <rect x="0" y="0" width="560" height="280" fill="#ffffff"/>
  <!-- ヘッダー背景 -->
  <rect x="0" y="0" width="560" height="35" fill="#f0f0f0"/>
  <rect x="0" y="0" width="60" height="280" fill="#f8f8f8"/>
  <!-- グリッド線 -->
  <line x1="0" y1="35" x2="560" y2="35" stroke="#333" stroke-width="2"/>
  <line x1="60" y1="0" x2="60" y2="280" stroke="#333" stroke-width="2"/>
  <line x1="0" y1="0" x2="560" y2="0" stroke="#333"/>
  <line x1="0" y1="70" x2="560" y2="70" stroke="#ccc"/>
  <line x1="0" y1="105" x2="560" y2="105" stroke="#ccc"/>
  <line x1="0" y1="140" x2="560" y2="140" stroke="#ccc"/>
  <line x1="0" y1="175" x2="560" y2="175" stroke="#ccc"/>
  <line x1="0" y1="210" x2="560" y2="210" stroke="#ccc"/>
  <line x1="0" y1="245" x2="560" y2="245" stroke="#ccc"/>
  <line x1="0" y1="280" x2="560" y2="280" stroke="#333"/>
  <line x1="130" y1="0" x2="130" y2="280" stroke="#ccc"/>
  <line x1="200" y1="0" x2="200" y2="280" stroke="#ccc"/>
  <line x1="270" y1="0" x2="270" y2="280" stroke="#ccc"/>
  <line x1="340" y1="0" x2="340" y2="280" stroke="#333"/>
  <line x1="410" y1="0" x2="410" y2="280" stroke="#ccc"/>
  <line x1="480" y1="0" x2="480" y2="280" stroke="#ccc"/>
  <line x1="0" y1="0" x2="0" y2="280" stroke="#333"/>
  <line x1="560" y1="0" x2="560" y2="280" stroke="#333"/>
  <!-- ACTION/GOTO ヘッダー -->
  <text x="200" y="15" text-anchor="middle" font-size="11" font-weight="bold" fill="#333">ACTION</text>
  <text x="450" y="15" text-anchor="middle" font-size="11" font-weight="bold" fill="#333">GOTO</text>
  <!-- 列ヘッダー -->
  <text x="30" y="55" text-anchor="middle" font-size="12" font-weight="bold" fill="#333">状態</text>
  <text x="95" y="55" text-anchor="middle" font-size="12" fill="#333">DIGIT</text>
  <text x="165" y="55" text-anchor="middle" font-size="12" fill="#333">+</text>
  <text x="235" y="55" text-anchor="middle" font-size="12" fill="#333">$</text>
  <text x="375" y="55" text-anchor="middle" font-size="12" fill="#333">main</text>
  <text x="520" y="55" text-anchor="middle" font-size="12" fill="#333">expr</text>
  <!-- 状態0 -->
  <text x="30" y="90" text-anchor="middle" font-size="12" fill="#333">0</text>
  <text x="95" y="90" text-anchor="middle" font-size="12" fill="#0066cc">s1</text>
  <text x="165" y="90" text-anchor="middle" font-size="12" fill="#333"></text>
  <text x="235" y="90" text-anchor="middle" font-size="12" fill="#333"></text>
  <text x="375" y="90" text-anchor="middle" font-size="12" fill="#333">2</text>
  <text x="520" y="90" text-anchor="middle" font-size="12" fill="#333">3</text>
  <!-- 状態1 -->
  <text x="30" y="125" text-anchor="middle" font-size="12" fill="#333">1</text>
  <text x="95" y="125" text-anchor="middle" font-size="12" fill="#333"></text>
  <text x="165" y="125" text-anchor="middle" font-size="12" fill="#cc6600">r2</text>
  <text x="235" y="125" text-anchor="middle" font-size="12" fill="#cc6600">r2</text>
  <text x="375" y="125" text-anchor="middle" font-size="12" fill="#333"></text>
  <text x="520" y="125" text-anchor="middle" font-size="12" fill="#333"></text>
  <!-- 状態2 -->
  <text x="30" y="160" text-anchor="middle" font-size="12" fill="#333">2</text>
  <text x="95" y="160" text-anchor="middle" font-size="12" fill="#333"></text>
  <text x="165" y="160" text-anchor="middle" font-size="12" fill="#333"></text>
  <text x="235" y="160" text-anchor="middle" font-size="12" fill="#28a745" font-weight="bold">acc</text>
  <text x="375" y="160" text-anchor="middle" font-size="12" fill="#333"></text>
  <text x="520" y="160" text-anchor="middle" font-size="12" fill="#333"></text>
  <!-- 状態3 -->
  <text x="30" y="195" text-anchor="middle" font-size="12" fill="#333">3</text>
  <text x="95" y="195" text-anchor="middle" font-size="12" fill="#333"></text>
  <text x="165" y="195" text-anchor="middle" font-size="12" fill="#0066cc">s4</text>
  <text x="235" y="195" text-anchor="middle" font-size="12" fill="#cc6600">r3</text>
  <text x="375" y="195" text-anchor="middle" font-size="12" fill="#333"></text>
  <text x="520" y="195" text-anchor="middle" font-size="12" fill="#333"></text>
  <!-- 状態4 -->
  <text x="30" y="230" text-anchor="middle" font-size="12" fill="#333">4</text>
  <text x="95" y="230" text-anchor="middle" font-size="12" fill="#0066cc">s1</text>
  <text x="165" y="230" text-anchor="middle" font-size="12" fill="#333"></text>
  <text x="235" y="230" text-anchor="middle" font-size="12" fill="#333"></text>
  <text x="375" y="230" text-anchor="middle" font-size="12" fill="#333"></text>
  <text x="520" y="230" text-anchor="middle" font-size="12" fill="#333">5</text>
  <!-- 状態5 -->
  <text x="30" y="265" text-anchor="middle" font-size="12" fill="#333">5</text>
  <text x="95" y="265" text-anchor="middle" font-size="12" fill="#333"></text>
  <text x="165" y="265" text-anchor="middle" font-size="12" fill="#cc6600">r1</text>
  <text x="235" y="265" text-anchor="middle" font-size="12" fill="#cc6600">r1</text>
  <text x="375" y="265" text-anchor="middle" font-size="12" fill="#333"></text>
  <text x="520" y="265" text-anchor="middle" font-size="12" fill="#333"></text>
</svg>
